# xmcd
#
# Track frame offsets:
#	150
#	13361
#	26981
#	39848
#	53257
#	67282
#	80728
#	94674
#	108656
#	121926
#	133829
#	147221
#	160180
#	174669
#	187542
#	200429
#	212404
#	225439
#	239326
#	252558
#	263041
#	275622
#	289171
#	302129
#	314219
#
# Disc length: 4373 seconds
# Revision: 0
# Processed by: cddbd v1.5.2PL0 Copyright (c) Steve Scherf et al.
# Submitted via: dBpowerAMP V12.0
#
DISCID=71111319
DTITLE=Various Artist - Let Me Tell You About The Blues - New York
DYEAR=1934
DGENRE=Blues
TTITLE0=Leroy Carr - Barrel House Woman
TTITLE1=Hattie Hart - I Let My Daddy Do That
TTITLE2=Bob Campbell - Starvation Farm Blues
TTITLE3=Leadbelly - Packin' Trunk Blues
TTITLE4=Josh White - Black Man
TTITLE5=Walter Roland - Penniless Blues
TTITLE6=Bull City Red - I Saw The Light
TTITLE7=Roosevelt Sykes - Driving Wheel
TTITLE8=Peetie Wheatstraw - Coon Can Shorty
TTITLE9=Sam Montgomery - Mercy Mercy Blues
TTITLE10=Sleep John Estes - Hobo Jungle Blues
TTITLE11=Charlie Pickett - Let Me Squeeze Your Lemon
TTITLE12=Rosetta Howard - If You're A Viper
TTITLE13=Pete Johnson - Roll 'Em Pete
TTITLE14=Blind Boy Fuller - Shake It, Baby
TTITLE15=Ollie Shepard - Throw This Dog A Bone
TTITLE16=Brownie McGhee - I'm A Black Woman's Man
TTITLE17=Gabriel Brown - You Ain't No Good
TTITLE18=Boy Green - Play My Jukebox
TTITLE19=Guitar Slim and Jelly Belly - No More Hard Times
TTITLE20=Little Boy Fuller (Rich Trice) - Bed Springs Blues
TTITLE21=Sonny Terry - Custard Pie Blues
TTITLE22=Hank Kilroy - Harlem Women
TTITLE23=Ralph Willis - Christmas Blues
TTITLE24=Johnny Moore's Three Blazers - How Blue Can You Get
EXTD=
EXTT0=
EXTT1=
EXTT2=
EXTT3=
EXTT4=
EXTT5=
EXTT6=
EXTT7=
EXTT8=
EXTT9=
EXTT10=
EXTT11=
EXTT12=
EXTT13=
EXTT14=
EXTT15=
EXTT16=
EXTT17=
EXTT18=
EXTT19=
EXTT20=
EXTT21=
EXTT22=
EXTT23=
EXTT24=
PLAYORDER=
